<svg xmlns="http://www.w3.org/2000/svg" xmlns:xlink="http://www.w3.org/1999/xlink" width="46.51" height="46.51" viewBox="0 0 46.51 46.51"><defs><style>.a{fill:url(#a);}.b{filter:url(#b);}</style><linearGradient id="a" x1="0.5" x2="0.5" y2="1" gradientUnits="objectBoundingBox"><stop offset="0" stop-color="#ef9f9f"/><stop offset="1" stop-color="#c76b6b"/></linearGradient><filter id="b" x="0" y="0" width="46.51" height="46.51" filterUnits="userSpaceOnUse"><feOffset dy="3" input="SourceAlpha"/><feGaussianBlur stdDeviation="5" result="c"/><feFlood flood-color="#ed9c9c" flood-opacity="0.502"/><feComposite operator="in" in2="c"/><feComposite in="SourceGraphic"/></filter></defs><g transform="translate(15 28.51) rotate(-90)"><g class="b" transform="matrix(0, 1, -1, 0, 28.51, -15)"><path class="a" d="M13.483,0H3.027A3.03,3.03,0,0,0,0,3.027V13.483A3.031,3.031,0,0,0,3.027,16.51H13.483a3.031,3.031,0,0,0,3.027-3.027V3.027A3.03,3.03,0,0,0,13.483,0ZM8.255,13.69A5.435,5.435,0,1,1,13.69,8.255,5.441,5.441,0,0,1,8.255,13.69Zm5.61-9.746a1.286,1.286,0,1,1,1.286-1.286A1.287,1.287,0,0,1,13.865,3.944Z" transform="translate(15 28.51) rotate(-90)"/></g><path class="a" d="M3.139,0A3.138,3.138,0,1,0,6.277,3.138,3.142,3.142,0,0,0,3.139,0Z" transform="translate(5.116 5.117)"/></g></svg>