<svg xmlns="http://www.w3.org/2000/svg" xmlns:xlink="http://www.w3.org/1999/xlink" width="46.561" height="50.378" viewBox="0 0 46.561 50.378"><defs><style>.a{fill:url(#a);}.b{filter:url(#b);}</style><linearGradient id="a" x1="0.5" x2="0.5" y2="1" gradientUnits="objectBoundingBox"><stop offset="0" stop-color="#ef9f9f"/><stop offset="1" stop-color="#c76b6b"/></linearGradient><filter id="b" x="0" y="0" width="46.561" height="50.378" filterUnits="userSpaceOnUse"><feOffset dy="3" input="SourceAlpha"/><feGaussianBlur stdDeviation="5" result="c"/><feFlood flood-color="#ed9c9c" flood-opacity="0.502"/><feComposite operator="in" in2="c"/><feComposite in="SourceGraphic"/></filter></defs><g transform="translate(15 32.378) rotate(-90)"><g transform="translate(0)"><g class="b" transform="matrix(0, 1, -1, 0, 32.38, -15)"><path class="a" d="M20.378,1.96a8.341,8.341,0,0,1-2.4.658A4.192,4.192,0,0,0,19.815.306,8.369,8.369,0,0,1,17.16,1.32a4.184,4.184,0,0,0-7.124,3.814A11.868,11.868,0,0,1,1.418.765,4.185,4.185,0,0,0,2.712,6.347,4.151,4.151,0,0,1,.818,5.823c0,.018,0,.036,0,.053a4.183,4.183,0,0,0,3.354,4.1,4.2,4.2,0,0,1-1.888.072,4.185,4.185,0,0,0,3.905,2.9A8.388,8.388,0,0,1,1,14.741a8.419,8.419,0,0,1-1-.059A11.826,11.826,0,0,0,6.408,16.56a11.814,11.814,0,0,0,11.9-11.9c0-.181,0-.362-.012-.541A8.478,8.478,0,0,0,20.378,1.96Z" transform="translate(15 32.38) rotate(-90)"/></g></g></g></svg>